<svg width="24" height="24" viewBox="0 0 24 24" fill="none" xmlns="http://www.w3.org/2000/svg">
<path d="M18.6406 4.0311C18.359 4.00371 18.1112 3.82848 17.9882 3.57374C16.9717 1.46869 14.673 0 12 0C9.32706 0 7.02833 1.46868 6.0118 3.57371C5.88878 3.82845 5.64096 4.00367 5.35941 4.03107C2.3469 4.32415 0 6.66089 0 9.50009C0 11.49 1.15283 13.2331 2.87967 14.1987C3.12064 14.3335 3.28062 14.5832 3.27787 14.8593C3.27424 15.2241 3.27273 15.6081 3.27273 16.0123C3.27273 16.1099 3.27273 16.2063 3.27274 16.3015C3.27281 16.6875 3.58588 17 3.97188 17H20.0281C20.4141 17 20.7272 16.6875 20.7273 16.3015C20.7273 16.2063 20.7273 16.1099 20.7273 16.0123C20.7273 15.6081 20.7258 15.2241 20.7221 14.8593C20.7194 14.5832 20.8794 14.3335 21.1203 14.1988C22.8472 13.2331 24 11.49 24 9.50012C24 6.66092 21.6531 4.32419 18.6406 4.0311Z" fill="#212135"/>
<path d="M20.6694 19.7216C20.6925 19.3271 20.3739 19 19.9787 19H4.02129C3.62613 19 3.30754 19.3271 3.33061 19.7216C3.42221 21.2882 3.65881 22.2811 4.26988 22.9105C5.32768 24 7.5076 24 12 24C16.4924 24 18.6723 24 19.7301 22.9105C20.3412 22.2811 20.5778 21.2882 20.6694 19.7216Z" fill="#212135"/>
</svg>
