<svg width="24" height="27" viewBox="0 0 24 27" fill="none" xmlns="http://www.w3.org/2000/svg">
<path fill-rule="evenodd" clip-rule="evenodd" d="M10 0C9.44772 0 9 0.447715 9 1V2H8C7.08264 2 6.30954 2.61762 6.07383 3.45972C1.21097 4.49467 0 7.52779 0 15C0 24.882 2.118 27 12 27C21.882 27 24 24.882 24 15C24 7.52779 22.789 4.49467 17.9262 3.45972C17.6905 2.61762 16.9174 2 16 2H15V1C15 0.447715 14.5523 0 14 0C13.4477 0 13 0.447715 13 1V2H11V1C11 0.447715 10.5523 0 10 0ZM7 20C6.44772 20 6 20.4477 6 21C6 21.5523 6.44771 22 7 22H17C17.5523 22 18 21.5523 18 21C18 20.4477 17.5523 20 17 20H7ZM6 16C6 15.4477 6.44772 15 7 15H17C17.5523 15 18 15.4477 18 16C18 16.5523 17.5523 17 17 17H7C6.44771 17 6 16.5523 6 16ZM7 12C6.44772 12 6 11.5523 6 11C6 10.4477 6.44771 10 7 10H17C17.5523 10 18 10.4477 18 11C18 11.5523 17.5523 12 17 12H7Z" fill="#212135"/>
</svg>
