<svg width="20" height="23" viewBox="0 0 20 23" fill="none" xmlns="http://www.w3.org/2000/svg">
<path d="M7 21C8.5 22.3333 11.5 22.3333 13 21" stroke="#212135" stroke-width="2" stroke-linecap="round" stroke-linejoin="round"/>
<path fill-rule="evenodd" clip-rule="evenodd" d="M10.9987 1.05208C10.9996 1.03483 11 1.01747 11 1C11 0.447715 10.5523 0 10 0C9.44772 0 9.00001 0.447715 9.00001 1C9.00001 1.01748 9.00046 1.03486 9.00134 1.05212C5.65369 1.53463 2.5037 5.29948 3.00006 9.5C3.25714 10.7854 2.44769 11.4664 1.60518 12.1752C0.809063 12.845 -0.0165725 13.5396 0.000262538 14.7925C0.000262538 16.5484 1.00002 17.5 2.46831 17.9719C2.46831 17.9719 5.1574 19 10.0001 19C14.8429 19 17.532 17.9719 17.532 17.9719C19.0002 17.5 20.0002 16.5 20 14.7925C19.9998 13.5288 19.1747 12.8339 18.383 12.1672C17.5442 11.4609 16.743 10.7861 17.0002 9.5C17.4966 5.29938 14.3464 1.53444 10.9987 1.05208ZM4.42772 12.088C4.93434 11.287 5.17844 10.317 4.97922 9.20278C4.80687 7.5846 5.37131 6.0193 6.35017 4.83963C7.36229 3.61987 8.65031 3 9.71913 3H10.2811C11.35 3 12.638 3.61987 13.6501 4.83963C14.6289 6.01928 15.1934 7.58455 15.0211 9.2027C14.8228 10.3108 15.0604 11.2779 15.5647 12.0801C16.0024 12.7762 16.6175 13.2948 16.9944 13.6125L17.0229 13.6365C17.97 14.4354 18 14.5596 18 14.7927C18.0001 15.2288 17.8834 15.4409 17.7775 15.5684C17.6501 15.722 17.3987 15.914 16.92 16.0679L16.8684 16.0844L16.8252 16.1009L16.822 16.1021C16.8132 16.1053 16.7943 16.112 16.7653 16.1218C16.7073 16.1415 16.6091 16.1734 16.4719 16.2138C16.1974 16.2945 15.7666 16.4088 15.1876 16.5252C14.0301 16.7581 12.2794 17 10.0001 17C7.72086 17 5.9702 16.7581 4.81264 16.5252C4.2337 16.4088 3.80288 16.2945 3.52837 16.2138C3.39112 16.1734 3.29298 16.1415 3.23498 16.1218C3.20598 16.112 3.18703 16.1053 3.17824 16.1021L3.1751 16.101L3.13189 16.0844L3.08029 16.0678C2.579 15.9067 2.33383 15.7188 2.2155 15.5778C2.12295 15.4676 2.00026 15.2637 2.00026 14.7925V14.779L2.00008 14.7656C1.99741 14.5665 2.00238 14.4559 2.96344 13.6461L2.99231 13.6218L2.99232 13.6218C3.37111 13.3028 3.98795 12.7834 4.42772 12.088Z" fill="#212135"/>
</svg>
